<svg xmlns="http://www.w3.org/2000/svg" viewBox="0 0 36 36"><path fill="#269" d="M35 26a4 4 0 0 1-4 4H5a4 4 0 0 1-4-4V6.3C1 4.1 6.8 0 9 0h20.6C32.7 0 35 2.3 35 5.4z"/><path fill="#ccd6dd" d="M33 30a4 4 0 0 1-4 4H7a4 4 0 0 1-4-4V6c0-4.1 0-4 5-4h21a4 4 0 0 1 4 4z"/><path fill="#e1e8ed" d="M31 31a3 3 0 0 1-3 3H4a3 3 0 0 1-3-3V7a3 3 0 0 1 3-3h24a3 3 0 0 1 3 3z"/><path fill="#3b88c3" d="M31 32a4 4 0 0 1-4 4H6a4 4 0 0 1-4-4V10a4 4 0 0 1 4-4h21a4 4 0 0 1 4 4z"/><path fill="#55acee" d="M29 32a4 4 0 0 1-4 4H6a4 4 0 0 1-4-4V12a4 4 0 0 1 4-4h19.3c2.2 0 3.7 1.5 3.7 3.7z"/><path fill="#269" d="M6 6C4.3 6 4.3 4 5 3.3Q6 1.9 9.4 2H11V0H8.3C4.3 0 1 2.5 1 5.4V32a4 4 0 0 0 4 4h2V6z"/></svg>